<svg width="300" height="100" viewBox="0 0 300 100" fill="none" xmlns="http://www.w3.org/2000/svg">
<g clip-path="url(#clip0)">
<path d="M19.7408 28.1618C18.2818 27.5579 17.3393 26.1539 17.3393 24.5848C17.3393 23.6146 16.5474 22.8281 15.5705 22.8281C14.5935 22.8281 13.8017 23.6144 13.8017 24.5848C13.8017 26.2823 12.7076 27.7666 11.0794 28.2786C10.344 28.5097 9.84424 29.1873 9.84424 29.9532V60.4899C9.84424 61.4603 10.6361 62.2466 11.613 62.2466H19.06C20.0369 62.2466 20.8288 61.4603 20.8288 60.4899V29.7835C20.8292 29.0741 20.4001 28.4346 19.7408 28.1618Z" fill="#3B484A"/>
<path d="M85.3113 28.2776C83.6831 27.7656 82.589 26.2811 82.589 24.5838C82.589 23.6134 81.7973 22.8271 80.8202 22.8271C79.843 22.8271 79.0513 23.6134 79.0513 24.5838C79.0513 26.153 78.1087 27.5571 76.6495 28.1613C75.9907 28.4342 75.5615 29.0735 75.5615 29.7825V60.4889C75.5615 61.4593 76.3532 62.2456 77.3303 62.2456H84.7772C85.7544 62.2456 86.5461 61.4593 86.5461 60.4889V29.9523C86.5465 29.1863 86.0465 28.5087 85.3113 28.2776Z" fill="#3B484A"/>
<path d="M91.6907 59.3164H4.48484C3.35596 59.3164 2.44092 59.9217 2.44092 60.6685V97.7528C2.44092 98.4997 3.35596 99.1049 4.48484 99.1049H91.6907C92.8199 99.1049 93.7346 98.4997 93.7346 97.7528V60.6685C93.7344 59.9217 92.8196 59.3164 91.6907 59.3164Z" fill="#D1374D"/>
<path d="M95.7894 16.4658L86.0838 0.961513C85.7091 0.363222 85.0529 0 84.3472 0H11.829C11.1233 0 10.4672 0.363222 10.0927 0.961513L0.38676 16.4658C-0.00843898 17.0973 -0.0296759 17.8936 0.331105 18.5451C0.691886 19.1968 1.37805 19.6011 2.12305 19.6011H94.0529C94.7977 19.6011 95.4841 19.1968 95.8449 18.5451C96.2059 17.8933 96.1846 17.0973 95.7894 16.4658Z" fill="#D1374D"/>
<path d="M15.2556 15.5044H2.12271C0.991305 15.5044 0.0742188 16.4212 0.0742188 17.5529V24.8754C0.0742188 29.6256 3.93882 33.4902 8.68927 33.4902C13.4397 33.4902 17.3043 29.6256 17.3043 24.8754V17.5529C17.3038 16.4215 16.3867 15.5044 15.2556 15.5044Z" fill="#EB4C63"/>
<path d="M41.5214 15.5044H28.3883C27.2569 15.5044 26.3398 16.4212 26.3398 17.5529V24.8754C26.3398 29.6256 30.2047 33.4902 34.9549 33.4902C39.7051 33.4902 43.5699 29.6256 43.5699 24.8754V17.5529C43.5699 16.4215 42.6529 15.5044 41.5214 15.5044Z" fill="#EB4C63"/>
<path d="M67.7868 15.5044H54.654C53.5223 15.5044 52.6055 16.4212 52.6055 17.5529V24.8754C52.6055 29.6256 56.4701 33.4902 61.2205 33.4902C65.9707 33.4902 69.8353 29.6256 69.8353 24.8754V17.5529C69.8353 16.4215 68.9182 15.5044 67.7868 15.5044Z" fill="#EB4C63"/>
<path d="M94.052 15.5044H80.9191C79.7874 15.5044 78.8706 16.4212 78.8706 17.5529V24.8754C78.8706 29.6256 82.7352 33.4902 87.4857 33.4902C92.2359 33.4902 96.1005 29.6256 96.1005 24.8754V17.5529C96.1005 16.4215 95.1836 15.5044 94.052 15.5044Z" fill="#EB4C63"/>
<path d="M30.4369 15.5044H13.207V24.6919C13.207 29.3796 16.8754 33.3469 21.5611 33.4861C26.43 33.6306 30.4366 29.712 30.4366 24.8752V15.5044H30.4369Z" fill="#FFD039"/>
<path d="M56.7025 15.5044H39.4731V24.6919C39.4731 29.3796 43.1415 33.347 47.827 33.4861C52.6958 33.6308 56.7028 29.712 56.7028 24.8752V15.5044H56.7025Z" fill="#FFD039"/>
<path d="M82.9681 15.5044H65.7383V24.6916C65.7383 29.3793 69.4066 33.3467 74.0921 33.4861C78.961 33.6308 82.9679 29.712 82.9679 24.8752V15.5044H82.9681Z" fill="#FFD039"/>
</g>
<path d="M152.099 73.0106C152.539 73.4988 152.758 74.0114 152.758 74.5485C152.758 75.0855 152.465 75.6225 151.88 76.1595C151.391 76.6477 150.879 76.8918 150.342 76.8918C149.756 76.8918 149.194 76.5989 148.657 76.0131L134.524 59.9756L130.277 63.7104V74.6217C130.277 76.1351 129.52 76.8918 128.006 76.8918C126.493 76.8918 125.736 76.1351 125.736 74.6217V28.1205C125.736 26.6071 126.493 25.8503 128.006 25.8503C129.52 25.8503 130.277 26.6071 130.277 28.1205V57.6323L148.438 41.961C148.975 41.5216 149.487 41.3019 149.976 41.3019C150.61 41.3019 151.172 41.6193 151.66 42.2539C152.099 42.7421 152.319 43.2547 152.319 43.7918C152.319 44.3288 152.026 44.8658 151.44 45.4028L137.966 57.0464L152.099 73.0106Z" fill="#3B484A"/>
<path d="M163.763 76.8918C162.25 76.8918 161.493 76.1351 161.493 74.6217V43.7918C161.493 42.2783 162.25 41.5216 163.763 41.5216C165.277 41.5216 166.034 42.2783 166.034 43.7918V74.6217C166.034 76.1351 165.277 76.8918 163.763 76.8918ZM162.811 35.0774C160.956 35.0774 160.029 34.1254 160.029 32.2214V30.3174C160.029 29.4386 160.248 28.7796 160.688 28.3402C161.176 27.852 161.884 27.6079 162.811 27.6079H164.569C165.448 27.6079 166.107 27.852 166.546 28.3402C167.034 28.8284 167.279 29.4874 167.279 30.3174V32.2214C167.279 33.149 167.034 33.8569 166.546 34.3451C166.107 34.8333 165.448 35.0774 164.569 35.0774H162.811Z" fill="#3B484A"/>
<path d="M192.533 76.8918C187.895 76.8918 184.477 75.8178 182.28 73.6697C180.084 71.4728 178.985 68.0554 178.985 63.4175V55.0692C178.985 50.3825 180.084 46.9651 182.28 44.817C184.477 42.6201 187.895 41.5216 192.533 41.5216H198.538C203.175 41.5216 206.593 42.6201 208.79 44.817C210.987 47.0139 212.085 50.4313 212.085 55.0692V63.3442C212.085 67.9822 210.987 71.3996 208.79 73.5965C206.593 75.7934 203.175 76.8918 198.538 76.8918H192.533ZM198.538 72.3516C201.955 72.3516 204.298 71.7169 205.568 70.4476C206.886 69.1294 207.545 66.7617 207.545 63.3442V55.0692C207.545 51.6518 206.886 49.3084 205.568 48.0391C204.298 46.721 201.955 46.0619 198.538 46.0619H192.533C190.238 46.0619 188.432 46.3304 187.114 46.8674C185.844 47.4045 184.917 48.332 184.331 49.6502C183.794 50.9195 183.525 52.7259 183.525 55.0692V63.4175C183.525 66.7861 184.16 69.1294 185.429 70.4476C186.747 71.7169 189.115 72.3516 192.533 72.3516H198.538Z" fill="#3B484A"/>
<path d="M232.978 76.8918C229.951 76.8918 227.608 76.2572 225.948 74.9879C224.288 73.6697 223.263 71.6925 222.872 69.0562C222.775 68.3239 222.921 67.7625 223.312 67.3719C223.751 66.9325 224.361 66.7128 225.142 66.7128C225.826 66.7128 226.339 66.9081 226.68 67.2987C227.071 67.6404 227.339 68.1774 227.486 68.9097C227.681 70.1791 228.194 71.0822 229.024 71.6193C229.902 72.1075 231.221 72.3516 232.978 72.3516H244.988C247.136 72.3516 248.601 71.961 249.382 71.1799C250.212 70.3499 250.627 68.8609 250.627 66.7128C250.627 64.5159 250.212 63.0269 249.382 62.2458C248.601 61.4647 247.136 61.0741 244.988 61.0741H233.125C229.854 61.0741 227.413 60.2686 225.802 58.6575C224.19 57.0464 223.385 54.581 223.385 51.2612C223.385 47.9415 224.166 45.5005 225.728 43.9382C227.339 42.3272 229.805 41.5216 233.125 41.5216H244.622C247.453 41.5216 249.65 42.1319 251.212 43.3524C252.775 44.5241 253.727 46.3304 254.068 48.7714C254.215 49.5037 254.068 50.0896 253.629 50.5289C253.238 50.9683 252.653 51.188 251.872 51.188C251.188 51.188 250.651 51.0171 250.26 50.6754C249.919 50.2848 249.675 49.7234 249.528 48.9911C249.333 47.8682 248.845 47.1115 248.064 46.721C247.331 46.2816 246.184 46.0619 244.622 46.0619H233.125C231.074 46.0619 229.683 46.428 228.95 47.1604C228.267 47.8438 227.925 49.2108 227.925 51.2612C227.925 53.2629 228.291 54.6542 229.024 55.4354C229.756 56.1677 231.123 56.5338 233.125 56.5338H244.988C248.454 56.5338 251.017 57.3638 252.677 59.0237C254.337 60.6835 255.167 63.2466 255.167 66.7128C255.167 70.1302 254.337 72.6933 252.677 74.402C251.017 76.0619 248.454 76.8918 244.988 76.8918H232.978Z" fill="#3B484A"/>
<path d="M293.482 73.0106C293.922 73.4988 294.141 74.0114 294.141 74.5485C294.141 75.0855 293.849 75.6225 293.263 76.1595C292.774 76.6477 292.262 76.8918 291.725 76.8918C291.139 76.8918 290.578 76.5989 290.041 76.0131L275.907 59.9756L271.66 63.7104V74.6217C271.66 76.1351 270.903 76.8918 269.39 76.8918C267.876 76.8918 267.119 76.1351 267.119 74.6217V28.1205C267.119 26.6071 267.876 25.8503 269.39 25.8503C270.903 25.8503 271.66 26.6071 271.66 28.1205V57.6323L289.821 41.961C290.358 41.5216 290.87 41.3019 291.359 41.3019C291.993 41.3019 292.555 41.6193 293.043 42.2539C293.482 42.7421 293.702 43.2547 293.702 43.7918C293.702 44.3288 293.409 44.8658 292.823 45.4028L279.349 57.0464L293.482 73.0106Z" fill="#3B484A"/>
<defs>
<clipPath id="clip0">
<rect width="96.1758" height="99.105" fill="white"/>
</clipPath>
</defs>
</svg>
